<svg xmlns="http://www.w3.org/2000/svg" version="1.1" xmlns:xlink="http://www.w3.org/1999/xlink" width="625" height="625"><svg xmlns="http://www.w3.org/2000/svg" version="1.1" xmlns:xlink="http://www.w3.org/1999/xlink" width="625" height="625"><svg width="625" height="625" viewBox="0 0 625 625" fill="none" xmlns="http://www.w3.org/2000/svg">
<circle cx="312.5" cy="312.5" r="312.5" fill="#0E0E0E"></circle>
<path d="M349.413 199.2V197.45H276.613V199.2C281.513 199.55 284.663 200.25 288.163 201.3C294.113 203.05 300.413 208.3 303.913 216C306.713 224.4 309.513 235.25 309.513 258V350.75H308.813L204.863 197.45H124.013V199.55C127.163 199.9 131.713 200.6 135.213 202C144.313 205.85 153.063 213.2 156.913 220.9C161.113 229.3 164.613 247.5 164.613 271.65V367.2C164.613 389.95 161.463 400.45 157.963 408.85C155.163 416.55 149.213 421.8 142.913 423.55C139.413 424.6 135.913 425.3 131.013 425.65V427.4H204.163V425.65C199.263 425.3 196.113 424.6 192.613 423.55C186.313 421.8 180.013 416.55 177.213 408.85C173.713 400.45 170.913 389.95 170.913 367.2V240.15H172.313L305.313 429.5H316.513V258C316.513 235.25 319.313 224.4 322.463 216C325.613 208.3 331.563 203.05 337.513 201.3C341.363 200.25 344.863 199.55 349.413 199.2Z" fill="#EEEEEE"></path>
<path d="M371.475 379.1H486.475V371.4H371.475V379.1Z" fill="#EEEEEE"></path>
<path d="M499.5 284.525C499.5 238.7 463.425 211.4 428.325 211.4C393.55 211.4 357.475 238.375 357.475 284.525C357.475 330.675 393.225 357.975 428.325 357.975C463.75 357.975 499.5 330.35 499.5 284.525ZM457.25 284.525C457.25 315.4 453.025 338.15 445.55 347.575C440.35 353.75 434.175 355.05 428.325 355.05C422.8 355.05 416.3 353.425 411.425 347.575C403.625 338.15 399.725 315.4 399.725 284.525C399.725 253.975 403.3 230.9 411.75 221.475C416.3 216.6 422.8 214.65 428.325 214.65C434.175 214.65 440.675 215.95 445.55 221.8C453.35 231.225 457.25 253.975 457.25 284.525Z" fill="#EEEEEE"></path>
</svg></svg><style>@media (prefers-color-scheme: light) { :root { filter: none; } }
@media (prefers-color-scheme: dark) { :root { filter: invert(100%); } }
</style></svg>