<?xml version="1.0" standalone="no"?>
<!DOCTYPE svg PUBLIC "-//W3C//DTD SVG 20010904//EN"
 "http://www.w3.org/TR/2001/REC-SVG-20010904/DTD/svg10.dtd">
<svg version="1.0" xmlns="http://www.w3.org/2000/svg"
 width="260.000000pt" height="260.000000pt" viewBox="0 0 260.000000 260.000000"
 preserveAspectRatio="xMidYMid meet">
<metadata>
Created by potrace 1.14, written by Peter Selinger 2001-2017
</metadata>
<g transform="translate(0.000000,260.000000) scale(0.100000,-0.100000)"
fill="#000000" stroke="none">
<path d="M1135 2553 c-76 -10 -248 -59 -329 -94 -389 -167 -660 -503 -747
-922 -26 -128 -29 -331 -6 -462 45 -252 158 -475 336 -659 189 -195 406 -316
674 -373 115 -25 370 -25 487 0 386 83 706 322 879 657 60 117 105 242 127
357 24 118 24 347 1 465 -104 531 -512 931 -1041 1023 -81 14 -301 19 -381 8z
m482 -940 c434 -438 662 -675 663 -689 1 -43 -5 -44 -411 -44 l-386 0 -258
-265 c-258 -266 -281 -285 -313 -253 -9 9 -12 235 -12 955 0 887 1 943 18 952
9 6 22 11 27 11 6 0 308 -300 672 -667z"/>
<path d="M980 1548 l0 -588 238 0 237 0 175 175 175 175 -413 413 -412 413 0
-588z"/>
<path d="M1710 1105 l-145 -145 288 0 c158 0 287 3 287 6 0 8 -272 284 -279
284 -4 0 -71 -65 -151 -145z"/>
<path d="M980 683 l0 -198 195 195 c107 107 195 196 195 197 0 2 -88 3 -195 3
l-195 0 0 -197z"/>
</g>
</svg>
